<svg id="Layer" xmlns="http://www.w3.org/2000/svg" viewBox="0 0 461.47 162.89"><defs><style>.cls-1,.cls-2{fill:#ffcb05;}.cls-10,.cls-2,.cls-3,.cls-4,.cls-5,.cls-6,.cls-7,.cls-8,.cls-9{fill-rule:evenodd;}.cls-3{fill:#0066b3;}.cls-4{fill:#ed1c24;}.cls-11,.cls-5{fill:#00aeef;}.cls-12,.cls-6{fill:#f58220;}.cls-7{fill:#00a651;}.cls-13,.cls-8{fill:#7670b3;}.cls-14,.cls-9{fill:#c657a0;}.cls-10,.cls-15{fill:#a6ce39;}.cls-16{fill:#231f20;}</style></defs><title>idm-en-logo-color</title><circle class="cls-1" cx="4.08" cy="99.29" r="4.08"/><path class="cls-2" d="M9.85,105.06a4.08,4.08,0,1,1,0,5.77A4.09,4.09,0,0,1,9.85,105.06Z"/><path class="cls-2" d="M18.51,113.72a4.08,4.08,0,1,1,0,5.77A4.07,4.07,0,0,1,18.51,113.72Z"/><path class="cls-3" d="M35.82,113.72a4.08,4.08,0,1,1,0,5.77A4.07,4.07,0,0,1,35.82,113.72Z"/><path class="cls-4" d="M44.47,105.06a4.08,4.08,0,1,1,0,5.77A4.09,4.09,0,0,1,44.47,105.06Z"/><path class="cls-5" d="M61.78,87.75a4.08,4.08,0,1,1,0,5.77A4.09,4.09,0,0,1,61.78,87.75Z"/><path class="cls-6" d="M70.44,79.09a4.08,4.08,0,1,1,0,5.77A4.09,4.09,0,0,1,70.44,79.09Z"/><path class="cls-7" d="M79.09,70.44a4.08,4.08,0,1,1,0,5.77A4.09,4.09,0,0,1,79.09,70.44Z"/><path class="cls-8" d="M87.75,61.78a4.08,4.08,0,1,1,0,5.77A4.09,4.09,0,0,1,87.75,61.78Z"/><path class="cls-5" d="M96.4,53.13a4.08,4.08,0,1,1,0,5.77A4.08,4.08,0,0,1,96.4,53.13Z"/><circle class="cls-1" cx="107.95" cy="47.36" r="4.08"/><path class="cls-5" d="M113.72,35.82a4.08,4.08,0,1,1,0,5.77A4.07,4.07,0,0,1,113.72,35.82Z"/><path class="cls-9" d="M122.37,27.16a4.08,4.08,0,1,1,0,5.77A4.09,4.09,0,0,1,122.37,27.16Z"/><path class="cls-6" d="M131,18.51a4.08,4.08,0,1,1,0,5.77A4.07,4.07,0,0,1,131,18.51Z"/><path class="cls-10" d="M139.68,9.85a4.08,4.08,0,1,1,0,5.77A4.09,4.09,0,0,1,139.68,9.85Z"/><path class="cls-6" d="M148.34,1.2a4.08,4.08,0,1,1,0,5.77A4.07,4.07,0,0,1,148.34,1.2Z"/><path class="cls-3" d="M53.13,96.41a4.08,4.08,0,1,1,0,5.77A4.07,4.07,0,0,1,53.13,96.41Z"/><path class="cls-4" d="M53.13,113.72a4.08,4.08,0,1,1,0,5.77A4.07,4.07,0,0,1,53.13,113.72Z"/><path class="cls-4" d="M61.78,122.37a4.08,4.08,0,1,1,0,5.77A4.09,4.09,0,0,1,61.78,122.37Z"/><path class="cls-4" d="M70.44,131a4.08,4.08,0,1,1,0,5.77A4.07,4.07,0,0,1,70.44,131Z"/><circle class="cls-11" cx="73.32" cy="99.29" r="4.08"/><circle class="cls-11" cx="81.98" cy="107.95" r="4.08"/><path class="cls-5" d="M87.75,113.72a4.08,4.08,0,1,1,0,5.77A4.07,4.07,0,0,1,87.75,113.72Z"/><path class="cls-5" d="M96.4,122.37a4.08,4.08,0,1,1,0,5.77A4.1,4.1,0,0,1,96.4,122.37Z"/><path class="cls-6" d="M79.09,87.75a4.08,4.08,0,1,1,0,5.77A4.09,4.09,0,0,1,79.09,87.75Z"/><path class="cls-6" d="M87.75,96.4a4.08,4.08,0,1,1,0,5.77A4.09,4.09,0,0,1,87.75,96.4Z"/><path class="cls-6" d="M96.4,105.06a4.08,4.08,0,1,1,0,5.77A4.1,4.1,0,0,1,96.4,105.06Z"/><circle class="cls-12" cx="107.95" cy="116.6" r="4.08"/><path class="cls-6" d="M113.72,122.37a4.08,4.08,0,1,1,0,5.77A4.09,4.09,0,0,1,113.72,122.37Z"/><path class="cls-6" d="M122.37,131a4.08,4.08,0,1,1,0,5.77A4.07,4.07,0,0,1,122.37,131Z"/><path class="cls-6" d="M131,139.68a4.08,4.08,0,1,1,0,5.77A4.09,4.09,0,0,1,131,139.68Z"/><path class="cls-6" d="M139.68,148.34a4.08,4.08,0,1,1,0,5.77A4.07,4.07,0,0,1,139.68,148.34Z"/><path class="cls-7" d="M87.75,79.09a4.08,4.08,0,1,1,0,5.77A4.09,4.09,0,0,1,87.75,79.09Z"/><path class="cls-8" d="M96.4,70.44a4.08,4.08,0,1,1,0,5.77A4.1,4.1,0,0,1,96.4,70.44Z"/><path class="cls-8" d="M105.06,79.09a4.08,4.08,0,1,1,0,5.77A4.09,4.09,0,0,1,105.06,79.09Z"/><path class="cls-8" d="M113.72,87.75a4.08,4.08,0,1,1,0,5.77A4.09,4.09,0,0,1,113.72,87.75Z"/><circle class="cls-13" cx="125.26" cy="99.29" r="4.08"/><path class="cls-8" d="M131,105.06a4.08,4.08,0,1,1,0,5.77A4.09,4.09,0,0,1,131,105.06Z"/><circle class="cls-11" cx="107.95" cy="64.67" r="4.08"/><path class="cls-5" d="M113.72,70.44a4.08,4.08,0,1,1,0,5.77A4.09,4.09,0,0,1,113.72,70.44Z"/><path class="cls-5" d="M122.37,79.09a4.08,4.08,0,1,1,0,5.77A4.09,4.09,0,0,1,122.37,79.09Z"/><path class="cls-5" d="M131,87.75a4.08,4.08,0,1,1,0,5.77A4.09,4.09,0,0,1,131,87.75Z"/><circle class="cls-1" cx="116.6" cy="56.01" r="4.08"/><circle class="cls-1" cx="125.26" cy="64.67" r="4.08"/><circle class="cls-11" cx="125.26" cy="47.36" r="4.08"/><path class="cls-5" d="M131,53.13a4.08,4.08,0,1,1,0,5.77A4.07,4.07,0,0,1,131,53.13Z"/><path class="cls-5" d="M139.68,61.78a4.08,4.08,0,1,1,0,5.77A4.09,4.09,0,0,1,139.68,61.78Z"/><path class="cls-5" d="M148.34,70.44a4.08,4.08,0,1,1,0,5.77A4.09,4.09,0,0,1,148.34,70.44Z"/><path class="cls-9" d="M131,35.82a4.08,4.08,0,1,1,0,5.77A4.07,4.07,0,0,1,131,35.82Z"/><path class="cls-9" d="M139.68,44.47a4.08,4.08,0,1,1,0,5.77A4.09,4.09,0,0,1,139.68,44.47Z"/><path class="cls-9" d="M148.34,53.13a4.08,4.08,0,1,1,0,5.77A4.07,4.07,0,0,1,148.34,53.13Z"/><circle class="cls-14" cx="159.88" cy="64.67" r="4.08"/><path class="cls-9" d="M165.65,70.44a4.08,4.08,0,1,1,0,5.77A4.09,4.09,0,0,1,165.65,70.44Z"/><path class="cls-9" d="M174.3,79.09a4.08,4.08,0,1,1,0,5.77A4.09,4.09,0,0,1,174.3,79.09Z"/><path class="cls-9" d="M183,87.75a4.08,4.08,0,1,1,0,5.77A4.09,4.09,0,0,1,183,87.75Z"/><path class="cls-6" d="M139.68,27.16a4.08,4.08,0,1,1,0,5.77A4.09,4.09,0,0,1,139.68,27.16Z"/><path class="cls-6" d="M148.34,35.82a4.08,4.08,0,1,1,0,5.77A4.07,4.07,0,0,1,148.34,35.82Z"/><circle class="cls-12" cx="159.88" cy="47.36" r="4.08"/><circle class="cls-12" cx="168.53" cy="56.01" r="4.08"/><circle class="cls-12" cx="177.19" cy="64.67" r="4.08"/><path class="cls-6" d="M183,70.44a4.08,4.08,0,1,1,0,5.77A4.09,4.09,0,0,1,183,70.44Z"/><path class="cls-6" d="M191.61,79.09a4.08,4.08,0,1,1,0,5.77A4.1,4.1,0,0,1,191.61,79.09Z"/><path class="cls-6" d="M200.27,87.75a4.08,4.08,0,1,1,0,5.77A4.09,4.09,0,0,1,200.27,87.75Z"/><path class="cls-10" d="M148.34,18.51a4.08,4.08,0,1,1,0,5.77A4.07,4.07,0,0,1,148.34,18.51Z"/><path class="cls-10" d="M157,27.16a4.08,4.08,0,1,1,0,5.77A4.09,4.09,0,0,1,157,27.16Z"/><path class="cls-10" d="M165.65,35.82a4.08,4.08,0,1,1,0,5.77A4.07,4.07,0,0,1,165.65,35.82Z"/><circle class="cls-15" cx="177.19" cy="47.36" r="4.08"/><path class="cls-10" d="M183,53.13a4.08,4.08,0,1,1,0,5.77A4.07,4.07,0,0,1,183,53.13Z"/><path class="cls-10" d="M191.61,61.78a4.08,4.08,0,1,1,0,5.77A4.1,4.1,0,0,1,191.61,61.78Z"/><path class="cls-6" d="M157,9.85a4.08,4.08,0,1,1,0,5.77A4.09,4.09,0,0,1,157,9.85Z"/><circle class="cls-12" cx="168.53" cy="21.39" r="4.08"/><path class="cls-6" d="M174.3,27.16a4.08,4.08,0,1,1,0,5.77A4.09,4.09,0,0,1,174.3,27.16Z"/><path class="cls-6" d="M183,35.82a4.08,4.08,0,1,1,0,5.77A4.07,4.07,0,0,1,183,35.82Z"/><path class="cls-6" d="M191.61,44.47a4.08,4.08,0,1,1,0,5.77A4.1,4.1,0,0,1,191.61,44.47Z"/><circle class="cls-12" cx="203.16" cy="56.01" r="4.08"/><circle class="cls-12" cx="211.81" cy="64.67" r="4.08"/><path class="cls-6" d="M217.58,70.44a4.08,4.08,0,1,1,0,5.77A4.09,4.09,0,0,1,217.58,70.44Z"/><path class="cls-16" d="M229.6,146.15a.46.46,0,0,1,.43-.33h.38a.45.45,0,0,1,.4.26l4.72,13.06h.12l4.64-13.06a.46.46,0,0,1,.41-.26h.38a.46.46,0,0,1,.43.33l3.07,15.93c.07.33-.07.57-.43.57h-1a.49.49,0,0,1-.43-.33l-2.12-12.21h-.1l-4.38,12.52a.49.49,0,0,1-.4.26h-.43a.5.5,0,0,1-.41-.26l-4.43-12.52h-.09l-2.07,12.21a.46.46,0,0,1-.43.33h-1c-.35,0-.5-.24-.42-.57Z"/><path class="cls-16" d="M246.13,162l7.24-16a.43.43,0,0,1,.4-.26H254a.43.43,0,0,1,.41.26l7.19,16a.42.42,0,0,1-.4.61h-1a.44.44,0,0,1-.4-.26l-1.77-3.91h-8.45l-1.74,3.91a.44.44,0,0,1-.4.26h-1A.42.42,0,0,1,246.13,162Zm11.31-5c-1.16-2.59-2.31-5.19-3.48-7.78h-.19L250.3,157Z"/><path class="cls-16" d="M264.37,146.5a.46.46,0,0,1,.46-.45H271a5.11,5.11,0,0,1,5.19,5,5.28,5.28,0,0,1-3.53,4.84l3.27,6a.45.45,0,0,1-.41.69h-1.21a.43.43,0,0,1-.39-.21l-3.16-6.28h-4.55v6a.47.47,0,0,1-.46.45h-.92a.45.45,0,0,1-.46-.45Zm6.51,8.09a3.41,3.41,0,1,0,0-6.81h-4.62v6.81Z"/><path class="cls-16" d="M287.67,145.82a8.4,8.4,0,0,1,5.76,2.2.46.46,0,0,1,0,.67l-.65.64c-.19.23-.38.21-.61,0a7.28,7.28,0,0,0-4.55-1.78,6.82,6.82,0,0,0,0,13.64,7,7,0,0,0,4.55-1.78.44.44,0,0,1,.57-.07l.71.64a.45.45,0,0,1,0,.64,8.22,8.22,0,0,1-5.79,2.3,8.54,8.54,0,1,1,0-17.07Z"/><path class="cls-16" d="M297.29,146.5a.48.48,0,0,1,.46-.45h.92a.46.46,0,0,1,.46.45v6.93h9.67V146.5a.45.45,0,0,1,.45-.45h.93a.47.47,0,0,1,.45.45v15.7a.46.46,0,0,1-.45.45h-.93a.45.45,0,0,1-.45-.45V155h-9.67v7.18a.45.45,0,0,1-.46.45h-.92a.47.47,0,0,1-.46-.45Z"/><path class="cls-16" d="M323.87,151.53h-2.28a.44.44,0,0,1-.43-.45v-1.49a.67.67,0,0,1,.14-.36l3.48-2.7H327a.44.44,0,0,1,.43.45V162.2a.44.44,0,0,1-.43.45h-2.64a.45.45,0,0,1-.46-.45Z"/><path class="cls-16" d="M330,158.86v-2.52l8.32-9.93a.41.41,0,0,1,.35-.14h1.72a.45.45,0,0,1,.45.45l0,9.72h1.88a.43.43,0,0,1,.45.43v2a.45.45,0,0,1-.45.45h-1.88l0,2.92a.47.47,0,0,1-.45.45h-2.55a.47.47,0,0,1-.46-.45v-2.89h-7A.45.45,0,0,1,330,158.86Zm7.53-2.49V152l-3.79,4.41Z"/><path class="cls-16" d="M445.29,84.68A6.34,6.34,0,1,1,438.94,91,6.35,6.35,0,0,1,445.29,84.68Zm0,11.45A5.11,5.11,0,1,0,440.18,91,5.13,5.13,0,0,0,445.29,96.13Z"/><path class="cls-16" d="M453.83,85.19a.34.34,0,0,1,.34-.33h7a.34.34,0,0,1,.34.33v.51a.34.34,0,0,1-.34.34h-5.94v4.82h5.08a.35.35,0,0,1,.33.34v.51a.35.35,0,0,1-.33.33h-5.08v4.81a.34.34,0,0,1-.34.33h-.68a.33.33,0,0,1-.34-.33Z"/><path class="cls-16" d="M227.09,85.39a.35.35,0,0,1,.34-.34h.7a.35.35,0,0,1,.34.34V97a.35.35,0,0,1-.34.34h-.7a.35.35,0,0,1-.34-.34Z"/><path class="cls-16" d="M231.55,85.19a.33.33,0,0,1,.33-.31h.44l8,9.89h0V85.39a.34.34,0,0,1,.33-.34h.62a.35.35,0,0,1,.34.34V97.24a.33.33,0,0,1-.34.31H241l-8.12-10.09h0V97a.34.34,0,0,1-.34.34h-.62a.35.35,0,0,1-.33-.34Z"/><path class="cls-16" d="M246.45,86.23h-3.07a.34.34,0,0,1-.34-.33v-.51a.34.34,0,0,1,.34-.34h7.49a.34.34,0,0,1,.34.34v.51a.34.34,0,0,1-.34.33H247.8V97a.35.35,0,0,1-.34.34h-.67a.35.35,0,0,1-.34-.34Z"/><path class="cls-16" d="M252.62,85.39a.34.34,0,0,1,.34-.34h7a.34.34,0,0,1,.33.34v.51a.33.33,0,0,1-.33.33H254v4.3h5.07a.35.35,0,0,1,.34.33v.51a.34.34,0,0,1-.34.34H254V96.2h5.94a.33.33,0,0,1,.33.33V97a.34.34,0,0,1-.33.34h-7a.34.34,0,0,1-.34-.34Z"/><path class="cls-16" d="M262.56,85.39a.34.34,0,0,1,.34-.34h4.58a3.79,3.79,0,0,1,3.85,3.75,3.93,3.93,0,0,1-2.61,3.59l2.42,4.48a.33.33,0,0,1-.3.51h-.9a.32.32,0,0,1-.29-.16l-2.35-4.67h-3.38V97a.35.35,0,0,1-.33.34h-.69a.34.34,0,0,1-.34-.34Zm4.83,6a2.53,2.53,0,1,0,0-5H264v5Z"/><path class="cls-16" d="M273.72,85.19a.33.33,0,0,1,.34-.31h.44l8,9.89h0V85.39a.34.34,0,0,1,.34-.34h.61a.35.35,0,0,1,.34.34V97.24a.33.33,0,0,1-.34.31h-.31L275,87.46h0V97a.34.34,0,0,1-.34.34h-.61a.35.35,0,0,1-.34-.34Z"/><path class="cls-16" d="M285.18,96.92l5.37-11.85a.33.33,0,0,1,.31-.19H291a.3.3,0,0,1,.3.19l5.34,11.85a.31.31,0,0,1-.3.46h-.7a.32.32,0,0,1-.3-.2l-1.31-2.9h-6.28l-1.29,2.9a.33.33,0,0,1-.3.2h-.71A.31.31,0,0,1,285.18,96.92Zm8.4-3.73c-.87-1.92-1.72-3.86-2.58-5.78h-.14l-2.59,5.78Z"/><path class="cls-16" d="M299.13,86.23h-3.08a.33.33,0,0,1-.33-.33v-.51a.34.34,0,0,1,.33-.34h7.5a.34.34,0,0,1,.34.34v.51a.34.34,0,0,1-.34.33h-3.08V97a.34.34,0,0,1-.33.34h-.67a.35.35,0,0,1-.34-.34Z"/><path class="cls-16" d="M305.3,85.39a.35.35,0,0,1,.34-.34h.71a.35.35,0,0,1,.33.34V97a.35.35,0,0,1-.33.34h-.71a.35.35,0,0,1-.34-.34Z"/><path class="cls-16" d="M315.21,84.88a6.34,6.34,0,1,1-6.35,6.35A6.34,6.34,0,0,1,315.21,84.88Zm0,11.44a5.11,5.11,0,1,0-5.12-5.09A5.12,5.12,0,0,0,315.21,96.32Z"/><path class="cls-16" d="M323.75,85.19a.32.32,0,0,1,.33-.31h.44l8,9.89h0V85.39a.34.34,0,0,1,.33-.34h.62a.35.35,0,0,1,.34.34V97.24a.33.33,0,0,1-.34.31h-.32l-8.12-10.09h0V97a.34.34,0,0,1-.34.34h-.62a.34.34,0,0,1-.33-.34Z"/><path class="cls-16" d="M335.2,96.92l5.38-11.85a.3.3,0,0,1,.3-.19h.18a.31.31,0,0,1,.3.19l5.34,11.85a.32.32,0,0,1-.3.46h-.71a.33.33,0,0,1-.3-.2l-1.31-2.9H337.8l-1.29,2.9a.32.32,0,0,1-.3.2h-.71A.32.32,0,0,1,335.2,96.92Zm8.4-3.73c-.86-1.92-1.71-3.86-2.58-5.78h-.14l-2.58,5.78Z"/><path class="cls-16" d="M348.09,85.39a.34.34,0,0,1,.34-.34h.69a.35.35,0,0,1,.34.34V96.2h5.09a.33.33,0,0,1,.33.33V97a.34.34,0,0,1-.33.34h-6.12a.34.34,0,0,1-.34-.34Z"/><path class="cls-16" d="M365.16,69.32a.76.76,0,0,1,.72-.78H375a14.32,14.32,0,0,1,0,28.64h-9.14a.75.75,0,0,1-.72-.77Zm9.31,24c5.85,0,10.1-4.42,10.1-10.48s-4.25-10.39-10.1-10.39h-5.25V93.3Z"/><path class="cls-16" d="M390.18,96.12l12.21-27.54a.92.92,0,0,1,.67-.45h.4a.92.92,0,0,1,.68.45l12.13,27.54a.72.72,0,0,1-.68,1.06h-2.5a.93.93,0,0,1-.92-.61L409.71,91h-13c-.8,1.89-1.63,3.73-2.43,5.61a1,1,0,0,1-.91.61h-2.51A.72.72,0,0,1,390.18,96.12Zm18-8.68-4.9-11.21h-.2l-4.85,11.21Z"/><path class="cls-16" d="M423.11,83.39,413.8,69.72a.75.75,0,0,1,.64-1.18h2.94a.78.78,0,0,1,.64.37l7.2,10.43,7.2-10.43a.84.84,0,0,1,.63-.37h3a.75.75,0,0,1,.63,1.18l-9.42,13.63V96.41a.79.79,0,0,1-.76.77h-2.62a.76.76,0,0,1-.76-.77Z"/><path d="M152.36,105.45a.78.78,0,0,1,.82-.71h.73a.84.84,0,0,1,.78.47l10,22.11h.14l10-22.11a.78.78,0,0,1,.77-.47h.73a.77.77,0,0,1,.82.71l5.37,31.46a.81.81,0,0,1-.82,1.08h-4.14a1,1,0,0,1-.86-.7L174,119.54h-.14l-8,18.41a.78.78,0,0,1-.78.51h-.82a.82.82,0,0,1-.77-.51l-8.06-18.41h-.13l-2.64,17.75a.89.89,0,0,1-.82.7h-4.1a.85.85,0,0,1-.86-1.08Z"/><path d="M186.23,136.77l14.16-31.51a.81.81,0,0,1,.77-.52h.46a.78.78,0,0,1,.77.52l14,31.51a.83.83,0,0,1-.78,1.22h-4a1.31,1.31,0,0,1-1.32-.93L208.12,132H194.51l-2.23,5.06A1.38,1.38,0,0,1,191,138h-4A.83.83,0,0,1,186.23,136.77Zm19.66-10-4.55-10.3h-.13l-4.46,10.3Z"/><path d="M222,110.83h-7a.87.87,0,0,1-.86-.89V106.1a.87.87,0,0,1,.86-.89h19.9a.87.87,0,0,1,.86.89v3.84a.87.87,0,0,1-.86.89h-7V137.1a.91.91,0,0,1-.86.89h-4.24a.91.91,0,0,1-.86-.89Z"/><path d="M242.13,106.1a.91.91,0,0,1,.86-.89h4.24a.87.87,0,0,1,.86.89v12.41h14.84V106.1a.87.87,0,0,1,.86-.89H268a.91.91,0,0,1,.87.89v31a.91.91,0,0,1-.87.89h-4.19a.87.87,0,0,1-.86-.89V124.18H248.09V137.1a.87.87,0,0,1-.86.89H243a.91.91,0,0,1-.86-.89Z"/><path d="M277.81,106.1a.88.88,0,0,1,.87-.89h18.53a.87.87,0,0,1,.86.89v3.84a.87.87,0,0,1-.86.89H283.73v7.68H295a.91.91,0,0,1,.87.89v3.89a.88.88,0,0,1-.87.89H283.73v8.19h13.48a.87.87,0,0,1,.86.89v3.84a.87.87,0,0,1-.86.89H278.68a.88.88,0,0,1-.87-.89Z"/><path d="M308.59,105.45a.77.77,0,0,1,.82-.71h.72a.84.84,0,0,1,.78.47l10,22.11h.14l10-22.11a.79.79,0,0,1,.77-.47h.73a.77.77,0,0,1,.82.71l5.37,31.46a.8.8,0,0,1-.82,1.08H333.8a1,1,0,0,1-.86-.7l-2.69-17.75h-.13l-8,18.41a.77.77,0,0,1-.77.51h-.82a.83.83,0,0,1-.78-.51l-8-18.41h-.14L309,137.29a.89.89,0,0,1-.82.7H304a.85.85,0,0,1-.86-1.08Z"/><path d="M342.45,136.77l14.16-31.51a.82.82,0,0,1,.77-.52h.46a.77.77,0,0,1,.77.52l14,31.51a.83.83,0,0,1-.77,1.22h-4c-.69,0-1-.28-1.32-.93L364.35,132H350.74l-2.23,5.06a1.38,1.38,0,0,1-1.32.93h-4A.83.83,0,0,1,342.45,136.77Zm19.67-10-4.56-10.3h-.13L353,126.8Z"/><path d="M378.23,110.83h-7a.88.88,0,0,1-.87-.89V106.1a.88.88,0,0,1,.87-.89h19.89a.87.87,0,0,1,.86.89v3.84a.87.87,0,0,1-.86.89h-7V137.1a.91.91,0,0,1-.86.89h-4.24a.91.91,0,0,1-.86-.89Z"/><path d="M397.44,106.1a.91.91,0,0,1,.86-.89h4.24a.91.91,0,0,1,.86.89v31a.91.91,0,0,1-.86.89H398.3a.91.91,0,0,1-.86-.89Z"/><path d="M425.57,104.74a15.14,15.14,0,0,1,11,4.36.89.89,0,0,1,.05,1.31l-2.78,3a.71.71,0,0,1-1.13,0,10.64,10.64,0,0,0-7-2.76c-5.83,0-10.15,5-10.15,10.91s4.37,10.82,10.19,10.82a10.79,10.79,0,0,0,7-2.67.81.81,0,0,1,1.13,0l2.83,3a.92.92,0,0,1-.05,1.27,15.38,15.38,0,0,1-11.06,4.54,16.87,16.87,0,0,1,0-33.72Z"/><path d="M440.5,133.4l1.64-2.9a1,1,0,0,1,1.55-.33c.22.14,3.91,2.91,6.87,2.91,2.37,0,4.14-1.6,4.14-3.61,0-2.39-2-4-5.78-5.62-4.28-1.78-8.56-4.59-8.56-10.12,0-4.16,3-9,10.25-9a15.76,15.76,0,0,1,9.1,3.14,1.19,1.19,0,0,1,.27,1.55l-1.73,2.67a1.18,1.18,0,0,1-1.59.56c-.37-.24-3.82-2.58-6.33-2.58s-4,1.78-4,3.28c0,2.2,1.68,3.7,5.37,5.24,4.41,1.83,9.51,4.55,9.51,10.59,0,4.82-4,9.27-10.47,9.27a14.42,14.42,0,0,1-10-3.65C440.32,134.39,440.09,134.15,440.5,133.4Z"/></svg>